<svg xmlns="http://www.w3.org/2000/svg" width="98.748" height="87.106"><g transform="translate(-18.977 -23)"><circle data-name="Ellipse 1" cx="16.5" cy="16.5" r="16.5" transform="translate(18.977 23)" fill="#dedef9"/><path data-name="Path 1" d="M46.384 38H37v-9.408a1.5 1.5 0 0 0-3 0V38h-9.431a1.5 1.5 0 0 0 0 3H34v9.408a1.5 1.5 0 0 0 3 0V41h9.384a1.5 1.5 0 0 0 0-3Z" fill="#5c5ce0"/><path data-name="Path 2" d="M60.8 86.763a5.8 5.8 0 0 1-2.824-.742A5.709 5.709 0 0 1 55 80.969V58.164a5.8 5.8 0 0 1 8.867-4.9l18.307 11.4a5.774 5.774 0 0 1 0 9.809l-18.307 11.4a5.785 5.785 0 0 1-3.066.889Zm0-31.387a2.808 2.808 0 0 0-1.365.358A2.747 2.747 0 0 0 58 58.164v22.805a2.748 2.748 0 0 0 1.434 2.43 2.779 2.779 0 0 0 2.848-.071l18.307-11.4a2.774 2.774 0 0 0 0-4.716l-18.307-11.4a2.793 2.793 0 0 0-1.482-.43Z" fill="#242424"/><path data-name="Path 3" d="M92.44 100H43.561A9.573 9.573 0 0 1 34 90.465V60a1.5 1.5 0 0 1 1.5-1.5A1.5 1.5 0 0 1 37 60v30.463A6.568 6.568 0 0 0 43.563 97h48.875A6.568 6.568 0 0 0 99 90.461V47.538A6.569 6.569 0 0 0 92.437 41H56a1.5 1.5 0 0 1-1.5-1.5A1.5 1.5 0 0 1 56 38h36.438A9.575 9.575 0 0 1 102 47.536v42.927A9.573 9.573 0 0 1 92.44 100Z" fill="#242424"/><path data-name="Path 4" d="m117.62 92.145-5.925-39.9A9.537 9.537 0 0 0 102 44.112h-.654a9.45 9.45 0 0 1 .654 3.424v42.927A9.573 9.573 0 0 1 92.44 100H51.5v2.024A9.543 9.543 0 0 0 62.331 110l47.251-7.016a9.543 9.543 0 0 0 8.038-10.841Z" fill="#dedef9"/></g></svg>